<?xml version="1.0" encoding="utf-8"?>
<!-- Generator: Adobe Illustrator 23.0.0, SVG Export Plug-In . SVG Version: 6.00 Build 0)  -->
<svg version="1.1" id="Layer_1" xmlns="http://www.w3.org/2000/svg" xmlns:xlink="http://www.w3.org/1999/xlink" x="0px" y="0px"
	 viewBox="0 0 425.2 425.2" style="enable-background:new 0 0 425.2 425.2;" xml:space="preserve">
<g>
	<path d="M390.73,143.78c3.79-5.89,8.55-10.65,14.32-14.49c3.13-2.09,5.13-2.08,6.79,1.73c2.66,6.08,4.75,12.15,2.85,18.87
		c-0.69,2.43-0.19,4.51,1.32,6.54c1.76,2.36,3.33,4.86,4.95,7.31c3.98,6,5.6,12.33,2.91,19.38c-1.18,3.08-1.3,6.28-0.64,9.6
		c0.61,3.04,0.49,6.17,0,9.26c-0.81,5.06-3.42,8.59-8.52,9.93c-4.01,1.06-7.5,2.89-10.11,6.2c-0.68,0.86-1.54,1.53-2.69,1.68
		c-3.72,0.5-13.17-7.88-13.16-11.68c0-0.62,0.04-1.24,0.05-1.86c0.21-11.21-0.46-12.3-10.75-16.79c-2.16-0.95-4.22-2.01-5.71-3.88
		c-2.04-2.57-4.52-2.33-7.12-1.24c-2.63,1.1-4.37,2.82-4.02,6.03c0.82,7.55,1.14,15.14,1.1,22.74c0,0.88,0.24,1.92,0.74,2.63
		c9.76,14.06,13.43,30.6,18.3,46.52c3.71,12.15,10.71,18.75,23.27,19.64c2,0.14,3.98,0.61,5.96,0.98c5.63,1.05,8.99,4.59,10.65,9.88
		c2.06,6.58,1.03,7.98-5.82,8.03c-6.82,0.05-13.64-0.04-20.47,0.05c-2.76,0.04-5.11-0.5-7.18-2.54c-3.03-2.99-7.01-4.52-10.83-6.22
		c-4.19-1.86-8.09-4.2-10.58-8.07c-3.49-5.43-8.24-9.64-12.69-14.16c-8.91-9.06-18.13-17.82-26.56-27.36
		c-6.07-6.87-10.04-14.5-9.96-23.84c0.02-2.93-0.74-4.16-3.75-2.68c-0.96,0.47-2.06,0.92-3.1,0.93
		c-8.87,0.14-13.21,5.44-16.35,13.08c-2.76,6.71-6.7,12.93-10.02,19.41c-2.21,4.32-3.65,8.88-3.64,13.8
		c0.01,7.36,1.74,10.01,8.68,12.49c4.3,1.54,8.44,3.15,10.8,7.46c2.66,4.88,1.88,6.38-3.58,6.44c-7.13,0.07-14.26-0.03-21.4,0.06
		c-2.77,0.04-4.64-0.92-6-3.44c-1.76-3.27-3.87-6.35-5.82-9.52c-3.24-5.26-4.55-10.63-2.36-16.81c1.9-5.37,1.05-11.13,0.25-16.6
		c-1.18-8.15,0.1-15.43,5.44-21.8c1.74-2.08,1.96-3.22-1.24-3.82c-13.03-2.45-25.35-7.04-37.28-12.76
		c-0.14-0.07-0.28-0.13-0.43-0.19c-10.06-3.87-12-3-14.83,7.14c-2.45,8.8-5.01,17.6-6.93,26.52c-2.12,9.86,0.36,19.4,3.53,28.71
		c1.23,3.62,4.92,3.46,7.74,4.29c6.19,1.82,11.52,4.43,14.22,10.84c2.1,4.98,1.83,5.65-3.43,5.69c-5.43,0.04-10.87-0.27-16.27,0.09
		c-5.14,0.34-8.97-1.62-13.17-4.42c-15.16-10.13-19.47-25.25-20.68-42.08c-0.76-10.45-6.26-18.61-12.95-26.17
		c-1.3-1.47-2.48-2.07-4.37-0.88c-6.6,4.19-14.04,6.5-21.28,9.24c-15.23,5.77-28.45,14.38-38.44,27.49
		c-3.64,4.77-6.14,10.05-7.03,16.01c-0.84,5.63,0.74,8,6.18,9.61c6.02,1.77,8.4,4.69,9.09,10.76c0.29,2.57-0.64,3.89-3.23,3.9
		c-8.53,0-17.05-0.02-25.58-0.05c-1.89-0.01-3.1-1.12-4.22-2.51c-4.07-5.02-5.98-10.83-6.15-17.19c-0.28-10.89,1-21.65,2.91-32.35
		c1.18-6.6,4.3-12.01,10.57-14.97c18.63-8.78,28.36-25.24,37.14-42.59c1.77-3.5,0.2-4.03-2.83-3.76
		c-9.11,0.81-16.92,4.86-24.22,9.98c-9.41,6.61-17.88,14.36-26.26,22.2c-9.18,8.58-19.61,14.54-32.49,15.45
		c-21.75,1.53-32.68-11.04-31.59-31.93c0.37-7.12,2.77-13.7,7.65-19.07c3.77-4.14,8.35-6.41,14.14-4.73
		c4.81,1.39,6.05,3.82,4.07,8.32c-0.81,1.83-2.06,3.46-3.02,5.22c-1.11,2.03-2.37,4.03-3.14,6.2c-3.32,9.33,1.15,15.97,11.02,16.81
		c10.46,0.89,18.97-3.47,26.86-9.66c9.58-7.51,17.93-16.35,25.38-25.83c11.75-14.94,26.93-22.92,45.42-25.32
		c7.16-0.93,13.61-4.13,20.46-6.05c13.07-3.67,26.31-5.86,39.9-5.53c6.41,0.16,12.33-0.86,18.45-3.36
		c15.36-6.26,31.43-6.24,47.55-2.99c12.61,2.54,25.07,5.7,37.58,8.66c7.08,1.68,14.83,1.07,22.06-0.5
		c13.95-3.04,27.92-5.87,42.23-6.13c9.36-0.17,18.52,1.36,27.15,5.31C392.53,137.84,392.54,137.82,390.73,143.78z"/>
</g>
</svg>
