<?xml version="1.0" encoding="utf-8"?>
<!-- Generator: Adobe Illustrator 23.0.0, SVG Export Plug-In . SVG Version: 6.00 Build 0)  -->
<svg version="1.1" id="Layer_1" xmlns="http://www.w3.org/2000/svg" xmlns:xlink="http://www.w3.org/1999/xlink" x="0px" y="0px"
	 viewBox="0 0 425.2 425.2" style="enable-background:new 0 0 425.2 425.2;" xml:space="preserve">
<g>
	<path d="M127.91,1.2c0.55,0,1.1,0,1.66,0c2.96,1.54,4.73,4.12,6.25,6.97c2.55,4.78,4.37,9.85,5.73,15.05
		c0.93,3.54,2.84,5.23,6.44,5.86c10.17,1.76,17.57,7.56,22.75,16.36c3.23,5.49,5.73,11.31,8.02,17.24
		c6.21,16.1,10.95,32.7,16.74,48.94c2.76,7.75,2.88,7.65,11.17,7.73c9.85,0.1,9.16-1.54,9.31,9.38c0.05,3.46-1.04,5.21-4.7,5.03
		c-1.13-0.05-2.83-0.57-3.26,0.94c-0.36,1.26,1.04,2.13,1.88,3.02c5.19,5.49,11.68,8.69,18.87,10.63c8.25,2.23,16.67,3.97,24.75,6.7
		c20.62,6.96,39.74,16.67,54.59,33.11c9.07,10.03,15.31,21.93,20.61,34.27c16.15,37.6,23.72,77.4,29.74,117.58
		c2.82,18.82,4.81,37.74,6.34,56.7c0.77,9.47,1.76,18.95,1.62,28.48c-48.31,0-96.61,0-144.92,0c-0.51-2.02,0.32-3.82,1.01-5.6
		c2.95-7.67,9-11.66,16.64-13.43c3.02-0.7,3.4-1.61,1.53-4c-3.19-4.06-5.28-8.72-6.92-13.57c-7.1-21.01-9.84-42.93-13.27-64.69
		c-2.62-16.61-6.52-32.67-15.12-47.33c-6.36-10.83-14.33-20.22-24.33-27.85c-3.61-2.76-3.73-2.76-4.35,1.92
		c-0.41,3.13-0.52,6.31-0.71,9.47c-1.26,20.67-1.15,41.32,0.75,61.94c1.48,16.08,2.06,32.14,0.67,48.27
		c-1.61,18.59-5.02,36.83-9.72,54.86c-19.32,0-38.65,0-57.97,0c1.41-9.59,9.15-17.6,18.44-19.41c5.58-1.09,10.99-0.36,16.39,0.88
		c2.6,0.6,3.69,0.13,3.91-2.84c1.72-23.25,0.55-46.35-4.18-69.15c-5.46-26.34-10.6-52.73-13.33-79.48
		c-1.13-11.11-4.5-21.1-9.89-30.72c-5.19-9.26-9.71-18.9-14.81-28.22c-4.04-7.38-4.81-14.85-1.8-22.69
		c1.18-3.09,2.31-6.22,3.75-9.19c4.16-8.56,8.57-17,12.67-25.58c2.12-4.44,1.68-4.91-3.09-5.02c-7.09-0.15-7.09-0.15-7.21-7.18
		c-0.02-0.97,0.02-1.93,0-2.9c-0.06-3.01,1.11-4.67,4.41-4.43c2.2,0.16,4.41,0,6.62,0.04c3.01,0.06,3.88-1.26,3.14-4.17
		c-2.52-9.97-12.09-18.14-22.34-19.39c-9.74-1.19-19.26,0.19-28.75,1.88c-2.82,0.5-4.38-0.11-5.44-2.8
		c-1.73-4.36-3.68-8.63-5.6-12.91c-0.8-1.79-0.87-3.35,0.4-5C76.81,59,91.87,42.42,112.44,31.9c2.16-1.1,3.35-2.51,3.86-4.92
		c1.3-6.21,2.83-12.37,5.51-18.18C123.22,5.76,124.84,2.91,127.91,1.2z"/>
</g>
</svg>
